<svg xmlns="http://www.w3.org/2000/svg" version="1.1" xmlns:xlink="http://www.w3.org/1999/xlink" xmlns:svgjs="http://svgjs.dev/svgjs" width="1500" height="1500" viewBox="0 0 1500 1500"><rect width="1500" height="1500" fill="#000000"></rect><g transform="matrix(0.6666666666666666,0,0,0.6666666666666666,250.38053533575123,324.6780026990554)"><svg viewBox="0 0 290 247" data-background-color="#bdbfde" preserveAspectRatio="xMidYMid meet" height="1277" width="1500" xmlns="http://www.w3.org/2000/svg" xmlns:xlink="http://www.w3.org/1999/xlink"><g id="tight-bounds" transform="matrix(1,0,0,1,-0.11035524736786329,-0.09999999999999432)"><svg viewBox="0 0 290.2207104947357 247.2" height="247.2" width="290.2207104947357"><g><svg viewBox="0 0 395.52 336.89030611677686" height="247.2" width="290.2207104947357"><g transform="matrix(1,0,0,1,0,250.66299805688516)"><svg viewBox="0 0 395.52 86.22730805989168" height="86.22730805989168" width="395.52"><g id="textblocktransform"><svg viewBox="0 0 395.52 86.22730805989168" height="86.22730805989168" width="395.52" id="textblock"><g><svg viewBox="0 0 395.52 86.22730805989168" height="86.22730805989168" width="395.52"><g transform="matrix(1,0,0,1,0,0)"><svg width="395.52" viewBox="2.2 -38.38 229.89000000000001 50.120000000000005" height="86.22730805989168" data-palette-color="#58454b"><path d="M32.28-14.43L32.28-2.39Q31.69-1.98 30.19-1.26 28.69-0.54 26.05 0.02 23.41 0.59 19.43 0.59L19.43 0.59Q14.09 0.59 10.22-1.18 6.35-2.95 4.27-6.92 2.2-10.89 2.2-17.43L2.2-17.43Q2.2-26.15 6.67-30.87 11.13-35.6 19.12-35.6L19.12-35.6Q22.92-35.6 25.2-34.86 27.47-34.13 28.64-33.15 29.81-32.18 30.27-31.45L30.27-31.45Q30.44-31.18 30.52-30.97 30.59-30.76 30.62-30.32L30.62-30.32Q30.69-29.74 30.65-28.61 30.62-27.49 30.47-26.64L30.47-26.64Q30.37-26.1 30.15-25.93L30.15-25.93Q30.05-25.83 29.81-25.76 29.57-25.68 29.08-25.68L29.08-25.68Q28.3-25.68 27.26-25.74 26.22-25.81 25.73-25.88L25.73-25.88Q25.15-25.98 24.89-26.16 24.63-26.34 24.34-26.73L24.34-26.73Q24.05-27.12 23.54-27.65 23.02-28.17 21.98-28.59 20.95-29 19.12-29L19.12-29Q15.09-29 12.79-26.09 10.5-23.17 10.5-17.7L10.5-17.7Q10.5-11.96 12.88-8.98 15.26-6.01 19.73-6.01L19.73-6.01Q21.97-6.01 23.03-6.34 24.1-6.67 24.39-6.84L24.39-6.84 24.39-14.43Q24.39-15.14 24.63-15.5L24.63-15.5Q25.73-17.11 27.71-18.9L27.71-18.9Q28.08-19.19 28.34-19.19L28.34-19.19Q28.64-19.19 28.96-18.9L28.96-18.9Q30.03-17.97 30.76-17.13 31.49-16.28 32.03-15.5L32.03-15.5Q32.28-15.11 32.28-14.43L32.28-14.43ZM45.97-16.46L45.97-1.29Q45.97-0.56 45.66-0.28 45.36 0 44.63 0L44.63 0 39.6 0Q38.86 0 38.56-0.28 38.25-0.56 38.25-1.29L38.25-1.29 38.25-34.33Q38.25-34.91 38.5-35.23L38.5-35.23Q39.52-36.57 41.5-38.13L41.5-38.13Q41.84-38.38 42.11-38.38L42.11-38.38Q42.43-38.38 42.72-38.13L42.72-38.13Q43.77-37.33 44.49-36.62 45.21-35.91 45.73-35.23L45.73-35.23Q45.97-34.91 45.97-34.33L45.97-34.33 45.97-22.49 46.07-22.49Q46.6-23.19 47.46-23.91 48.31-24.63 49.74-25.12 51.17-25.61 53.39-25.61L53.39-25.61Q55.64-25.61 57.71-24.68 59.79-23.75 61.11-21.56 62.42-19.36 62.42-15.55L62.42-15.55 62.42-1.29Q62.42-0.56 62.12-0.28 61.81 0 61.08 0L61.08 0 56.05 0Q55.32 0 55.01-0.28 54.71-0.56 54.71-1.29L54.71-1.29 54.71-14.21Q54.71-16.92 53.59-18.15 52.46-19.38 50.53-19.38L50.53-19.38Q48.63-19.38 47.58-18.55 46.53-17.72 45.97-16.46L45.97-16.46ZM81.27 0.61L81.27 0.61Q77.14 0.61 74.09-0.72 71.04-2.05 69.36-4.86 67.67-7.67 67.67-12.11L67.67-12.11Q67.67-18.77 71.09-22.19 74.51-25.61 80.17-25.61L80.17-25.61Q83.86-25.61 86.41-24.29 88.96-22.97 90.29-20.65 91.62-18.33 91.62-15.36L91.62-15.36Q91.62-12.45 90.13-11.3 88.64-10.16 85.79-10.16L85.79-10.16 75.31-10.16Q75.51-7.64 77.16-6.32 78.8-5 81.64-5L81.64-5Q83.88-5 85.24-5.68 86.59-6.35 87.13-6.74L87.13-6.74Q87.59-7.08 88.18-7.06L88.18-7.06Q88.64-7.06 89.51-6.87 90.38-6.69 91.23-6.2L91.23-6.2Q91.84-5.88 91.84-5.32L91.84-5.32Q91.84-5 91.72-4.42L91.72-4.42Q91.65-4.08 91.47-3.43 91.3-2.78 91.04-2.22L91.04-2.22Q90.89-1.95 90.57-1.71L90.57-1.71Q90.08-1.37 89-0.81 87.91-0.24 86.03 0.18 84.15 0.61 81.27 0.61ZM75.26-15.16L75.26-15.16 83.22-15.16Q84.47-15.16 84.47-16.31L84.47-16.31Q84.47-18.04 83.38-19.23 82.29-20.41 80.12-20.41L80.12-20.41Q77.75-20.41 76.64-18.9 75.53-17.38 75.26-15.16ZM108.98 0.61L108.98 0.61Q102.82 0.61 99.24-2.66 95.65-5.93 95.65-12.4L95.65-12.4Q95.65-19.04 99.37-22.33 103.09-25.61 109.32-25.61L109.32-25.61Q115.32-25.61 118.94-22.38 122.55-19.14 122.55-12.84L122.55-12.84Q122.55-6.27 118.94-2.83 115.32 0.61 108.98 0.61ZM109.22-5.3L109.22-5.3Q111.91-5.3 113.27-6.97 114.64-8.64 114.64-12.7L114.64-12.7Q114.64-16.55 113.26-18.13 111.88-19.7 109.17-19.7L109.17-19.7Q106.56-19.7 105.06-18.01 103.56-16.31 103.56-12.5L103.56-12.5Q103.56-8.52 104.99-6.91 106.41-5.3 109.22-5.3ZM135.51-22.17L135.51-20.36 135.61-20.36Q137.44-25.44 142.2-25.44L142.2-25.44Q142.81-25.44 143.2-25.38 143.59-25.32 143.74-25.27L143.74-25.27Q144.11-25.15 144.11-24.71L144.11-24.71 144.11-18.82Q144.11-18.07 143.23-18.41L143.23-18.41Q142.93-18.53 142.39-18.66 141.84-18.8 140.86-18.8L140.86-18.8Q138.34-18.8 136.93-16.96 135.51-15.11 135.51-11.94L135.51-11.94 135.51-1.29Q135.51-0.56 135.21-0.28 134.9 0 134.17 0L134.17 0 129.14 0Q128.41 0 128.1-0.28 127.8-0.56 127.8-1.29L127.8-1.29 127.8-21.75Q127.8-22.34 128.04-22.66L128.04-22.66Q128.55-23.34 129.27-24.05 129.99-24.76 131.04-25.56L131.04-25.56Q131.24-25.71 131.44-25.76 131.63-25.81 131.78-25.81L131.78-25.81Q132.12-25.81 132.46-25.56L132.46-25.56Q134.49-23.97 135.29-22.85L135.29-22.85Q135.51-22.56 135.51-22.17L135.51-22.17ZM171.91-22.66L171.91-22.66 171.91-2.86Q171.91 4.27 167.85 8.01 163.78 11.74 156.7 11.74L156.7 11.74Q153.77 11.74 152.06 11.32 150.35 10.89 149.47 10.5L149.47 10.5Q148.91 10.23 148.74 9.94L148.74 9.94Q148.5 9.55 148.19 8.79 147.89 8.03 147.62 7.13L147.62 7.13Q147.55 6.79 147.59 6.62L147.59 6.62Q147.69 6.37 147.96 6.1L147.96 6.1Q148.4 5.66 149.22 5.08 150.04 4.49 150.48 4.32L150.48 4.32Q150.94 4.15 151.33 4.37L151.33 4.37Q151.97 4.71 153.15 5.14 154.33 5.57 156.48 5.57L156.48 5.57Q159.9 5.57 162.05 3.81 164.2 2.05 164.2-1.61L164.2-1.61 164.2-2.49 164.1-2.49Q163.56-1.81 162.71-1.1 161.85-0.39 160.5 0.1 159.14 0.59 157.02 0.59L157.02 0.59Q153.33 0.59 150.98-1.01 148.62-2.61 147.51-5.42 146.4-8.23 146.4-11.82L146.4-11.82Q146.4-15.75 147.69-18.87 148.99-22 152.04-23.82 155.09-25.63 160.39-25.63L160.39-25.63Q163.56-25.63 165.72-25.17 167.88-24.71 169.35-24.02 170.81-23.34 171.91-22.66ZM160.12-19.73L160.12-19.73Q157.29-19.73 155.8-17.82 154.31-15.92 154.31-11.91L154.31-11.91Q154.31-5.64 159.48-5.64L159.48-5.64Q161.51-5.64 162.59-6.47 163.66-7.3 164.2-8.57L164.2-8.57 164.2-18.65Q163.66-19.04 162.68-19.38 161.71-19.73 160.12-19.73ZM186.22-16.46L186.22-1.29Q186.22-0.56 185.91-0.28 185.61 0 184.87 0L184.87 0 179.84 0Q179.11 0 178.81-0.28 178.5-0.56 178.5-1.29L178.5-1.29 178.5-34.33Q178.5-34.91 178.74-35.23L178.74-35.23Q179.77-36.57 181.75-38.13L181.75-38.13Q182.09-38.38 182.36-38.38L182.36-38.38Q182.68-38.38 182.97-38.13L182.97-38.13Q184.02-37.33 184.74-36.62 185.46-35.91 185.97-35.23L185.97-35.23Q186.22-34.91 186.22-34.33L186.22-34.33 186.22-22.49 186.31-22.49Q186.85-23.19 187.7-23.91 188.56-24.63 189.99-25.12 191.42-25.61 193.64-25.61L193.64-25.61Q195.88-25.61 197.96-24.68 200.03-23.75 201.35-21.56 202.67-19.36 202.67-15.55L202.67-15.55 202.67-1.29Q202.67-0.56 202.37-0.28 202.06 0 201.33 0L201.33 0 196.3 0Q195.57 0 195.26-0.28 194.96-0.56 194.96-1.29L194.96-1.29 194.96-14.21Q194.96-16.92 193.83-18.15 192.71-19.38 190.78-19.38L190.78-19.38Q188.88-19.38 187.83-18.55 186.78-17.72 186.22-16.46L186.22-16.46ZM221.52 0.61L221.52 0.61Q217.39 0.61 214.34-0.72 211.29-2.05 209.6-4.86 207.92-7.67 207.92-12.11L207.92-12.11Q207.92-18.77 211.34-22.19 214.75-25.61 220.42-25.61L220.42-25.61Q224.1-25.61 226.65-24.29 229.21-22.97 230.54-20.65 231.87-18.33 231.87-15.36L231.87-15.36Q231.87-12.45 230.38-11.3 228.89-10.16 226.03-10.16L226.03-10.16 215.56-10.16Q215.75-7.64 217.4-6.32 219.05-5 221.88-5L221.88-5Q224.13-5 225.48-5.68 226.84-6.35 227.38-6.74L227.38-6.74Q227.84-7.08 228.42-7.06L228.42-7.06Q228.89-7.06 229.76-6.87 230.62-6.69 231.48-6.2L231.48-6.2Q232.09-5.88 232.09-5.32L232.09-5.32Q232.09-5 231.96-4.42L231.96-4.42Q231.89-4.08 231.72-3.43 231.55-2.78 231.28-2.22L231.28-2.22Q231.13-1.95 230.82-1.71L230.82-1.71Q230.33-1.37 229.24-0.81 228.16-0.24 226.28 0.18 224.4 0.61 221.52 0.61ZM215.51-15.16L215.51-15.16 223.47-15.16Q224.71-15.16 224.71-16.31L224.71-16.31Q224.71-18.04 223.63-19.23 222.54-20.41 220.37-20.41L220.37-20.41Q218-20.41 216.89-18.9 215.78-17.38 215.51-15.16Z" opacity="1" transform="matrix(1,0,0,1,0,0)" fill="#ffffff" class="wordmark-text-0" data-fill-palette-color="primary" id="text-0"></path></svg></g></svg></g></svg></g></svg></g><g transform="matrix(1,0,0,1,92.78469894910441,0)"><svg viewBox="0 0 209.95060210179116 209.95060210179116" height="209.95060210179116" width="209.95060210179116"><g><svg></svg></g><g id="icon-0"><svg viewBox="0 0 209.95060210179116 209.95060210179116" height="209.95060210179116" width="209.95060210179116"><g><path d="M0 104.975c0-57.976 46.999-104.975 104.975-104.975 57.976 0 104.975 46.999 104.976 104.975 0 57.976-46.999 104.975-104.976 104.976-57.976 0-104.975-46.999-104.975-104.976zM104.975 202.175c53.682 0 97.199-43.518 97.2-97.2 0-53.682-43.518-97.199-97.2-97.199-53.682 0-97.199 43.518-97.199 97.199 0 53.682 43.518 97.199 97.199 97.2z" data-fill-palette-color="tertiary" fill="#ffffff" stroke="transparent"></path></g><g transform="matrix(1,0,0,1,44.22628754669072,51.17558353524824)"><svg viewBox="0 0 121.49802700840972 107.59943503129468" height="107.59943503129468" width="121.49802700840972"><g><svg xmlns="http://www.w3.org/2000/svg" xmlns:xlink="http://www.w3.org/1999/xlink" version="1.1" x="0" y="0" viewBox="25.899860075925623 52.199999999999996 460.2501399240743 407.6004874176015" style="enable-background:new 0 0 512 512;" xml:space="preserve" height="107.59943503129468" width="121.49802700840972" class="icon-cg-0" data-fill-palette-color="accent" id="cg-0"><g fill="#8b7685" data-fill-palette-color="accent"><path d="M376.8 262c2.9 16.3 17.1 28.2 33.7 28.2 18.9 0 34.3-15.3 34.3-34.2 0-18.9-15.3-34.3-34.2-34.3-16.6 0-30.8 11.9-33.7 28.2H135.4c-2.9-16.3-17.1-28.2-33.7-28.2-18.9 0-34.2 15.3-34.2 34.2 0 18.9 15.3 34.2 34.2 34.2 9.1 0 17.8-3.6 24.2-10h0c5-4.9 8.3-11.3 9.5-18.2H376.8z" fill="#ffffff" data-fill-palette-color="accent"></path><path d="M476.1 325.7c-13.4-13.4-35.1-13.4-48.5 0 0 0 0 0 0 0h0c-5 5-8.3 11.4-9.5 18.3h-56.2c-12.6-0.1-22.8-10.4-22.8-23 0-19.2-15.5-34.9-34.8-35h-96.6c-19.2 0.1-34.8 15.8-34.8 35 0 12.6-10.2 22.9-22.8 23H94c-1.2-6.9-4.5-13.3-9.5-18.3-13.4-13.3-35-13.2-48.3 0.1-13.3 13.4-13.2 35 0.1 48.3 13.3 13.2 34.8 13.2 48.1 0 5-4.9 8.3-11.2 9.5-18.1h56.2c19.2-0.1 34.8-15.8 34.8-35 0-12.6 10.2-22.9 22.8-23h96.6c12.6 0.1 22.8 10.4 22.8 23 0 19.2 15.5 34.9 34.8 35h56.2c1.2 6.9 4.5 13.2 9.5 18.1 13.4 13.4 35.1 13.4 48.5 0C489.4 360.8 489.5 339.1 476.1 325.7z" fill="#ffffff" data-fill-palette-color="accent"></path><path d="M391.6 391.3c-9.1 0-17.9 3.6-24.3 10.1-5.8 5.8-9.3 13.5-9.9 21.6h-8.1c-12.7-0.1-23.9-8-28.3-19.9l-18.7-50.5c-6.2-16.5-21.9-27.5-39.6-27.6h-13c-17.6 0-33.4 11-39.6 27.5l-18.7 50.6c-4.4 11.9-15.7 19.8-28.3 19.9h-8.1c-1.5-18.7-17.9-32.6-36.6-31.1-18.7 1.5-32.6 17.9-31.1 36.6s17.9 32.6 36.6 31.1c8-0.6 15.5-4.1 21.2-9.8 4.1-4.2 7.1-9.3 8.7-14.8h9.2c17.7-0.1 33.4-11.1 39.6-27.7l18.7-50.5c4.4-11.8 15.7-19.7 28.3-19.7h13c12.6 0 23.9 7.8 28.3 19.7l18.7 50.6c6.2 16.6 21.9 27.6 39.6 27.7h9.2c1.8 5.5 4.7 10.6 8.6 14.8v-0.1c7 6.5 15.1 10 24.3 10 18.9 0.1 34.3-15.2 34.3-34.1C425.7 406.7 410.5 391.4 391.6 391.3z" fill="#ffffff" data-fill-palette-color="accent"></path><path d="M84.4 186.4c0 0 0.1-0.1 0.1-0.1 5-5 8.3-11.4 9.5-18.3h56.2c12.6 0.1 22.8 10.4 22.8 23 0 19.2 15.5 34.9 34.8 35h96.6c19.2-0.1 34.8-15.8 34.8-35 0-12.6 10.2-22.9 22.8-23h56.2c1.2 6.9 4.5 13.3 9.5 18.3 13.4 13.4 35.1 13.4 48.4 0 13.4-13.4 13.4-35.1 0-48.4-13.4-13.4-35-13.4-48.4 0l0 0c-5 4.9-8.3 11.2-9.5 18.1h-56.2c-19.2 0.1-34.8 15.8-34.8 35 0 12.6-10.2 22.9-22.8 23h-96.6c-12.6-0.1-22.8-10.4-22.8-23 0-19.2-15.5-34.9-34.8-35H94c-1.2-6.9-4.5-13.2-9.5-18.1-13.4-13.4-35.1-13.5-48.5-0.1-13.4 13.4-13.5 35.1-0.1 48.5C49.3 199.7 71 199.8 84.4 186.4z" fill="#ffffff" data-fill-palette-color="accent"></path><path d="M144.9 110.6c5.8-5.8 9.3-13.4 9.9-21.6h8.1c12.7 0.1 23.9 8 28.3 19.9l18.7 50.5c6.2 16.5 21.9 27.5 39.6 27.6h13c17.6 0 33.4-11 39.6-27.5l18.7-50.6c4.4-11.9 15.7-19.8 28.3-19.9h8.1c1.5 18.7 17.9 32.6 36.6 31.1s32.6-17.9 31.1-36.6-17.9-32.6-36.6-31.1c-8 0.6-15.5 4.1-21.2 9.8-4.1 4.2-7.1 9.3-8.7 14.8h-9.2c-17.7 0.1-33.4 11.1-39.6 27.7l-18.7 50.5c-4.4 11.8-15.7 19.7-28.3 19.7h-13c-12.6 0-23.9-7.8-28.3-19.7l-18.7-50.6c-6.2-16.6-21.9-27.6-39.6-27.7h-9.2c-1.8-5.5-4.7-10.6-8.6-14.8v0.1c-7-6.5-15.1-10-24.3-10-9.1 0-17.9 3.6-24.3 10.1-13.3 13.4-13.3 35 0.1 48.4C110 124 131.6 124 144.9 110.6z" fill="#ffffff" data-fill-palette-color="accent"></path></g></svg></g></svg></g></svg></g></svg></g><g></g></svg></g><defs></defs></svg><rect width="290.2207104947357" height="247.2" fill="none" stroke="none" visibility="hidden"></rect></g></svg></g></svg>